<svg width="26" height="26" viewBox="0 0 26 26" fill="none" xmlns="http://www.w3.org/2000/svg">
<path d="M10.8333 22.7498H15.1667C15.1667 23.9415 14.1917 24.9165 13 24.9165C11.8083 24.9165 10.8333 23.9415 10.8333 22.7498ZM22.75 20.5832V21.6665H3.25V20.5832L5.41667 18.4165V11.9165C5.41667 8.55817 7.58333 5.63317 10.8333 4.65817V4.33317C10.8333 3.1415 11.8083 2.1665 13 2.1665C14.1917 2.1665 15.1667 3.1415 15.1667 4.33317V4.65817C18.4167 5.63317 20.5833 8.55817 20.5833 11.9165V18.4165L22.75 20.5832ZM18.4167 11.9165C18.4167 8.88317 16.0333 6.49984 13 6.49984C9.96667 6.49984 7.58333 8.88317 7.58333 11.9165V19.4998H18.4167V11.9165Z" fill="black"/>
</svg>
