<svg width="270" height="428" viewBox="0 0 270 428" fill="none" xmlns="http://www.w3.org/2000/svg">
<g filter="url(#filter0_d_708_7363)">
<rect x="4" width="262" height="418" rx="10" fill="#F2F2F2"/>
</g>
<path d="M56.0256 260.547H57.1867V273.376H56.0256V260.547ZM53.3634 265.376H56.1955V266.353H53.3634V265.376ZM47.2319 269.327H48.209C50.6163 269.327 52.1314 269.284 53.9298 268.944L54.0431 269.907C52.2022 270.233 50.6446 270.304 48.209 270.304H47.2319V269.327ZM47.2319 261.722H53.151V262.7H48.3931V269.666H47.2319V261.722ZM48.0957 265.319H52.5987V266.268H48.0957V265.319ZM68.9813 260.561H70.1566V273.362H68.9813V260.561ZM63.218 263.606H64.1667V264.696C64.1667 267.429 62.6232 269.907 60.57 270.898L59.9044 269.992C61.8019 269.114 63.218 266.933 63.218 264.696V263.606ZM63.4445 263.606H64.3791V264.696C64.3791 266.834 65.8377 268.916 67.7493 269.751L67.0838 270.672C65.0163 269.737 63.4445 267.344 63.4445 264.696V263.606ZM60.2584 262.784H67.3103V263.733H60.2584V262.784ZM63.218 260.788H64.3933V263.308H63.218V260.788ZM72.676 262.742H79.0199V263.705H72.676V262.742ZM75.848 264.555C77.4481 264.555 78.6093 265.758 78.6093 267.486C78.6093 269.199 77.4481 270.403 75.848 270.403C74.262 270.403 73.1009 269.199 73.1009 267.486C73.1009 265.758 74.262 264.555 75.848 264.555ZM75.848 265.56C74.8709 265.56 74.1629 266.353 74.1629 267.486C74.1629 268.619 74.8709 269.412 75.848 269.412C76.8392 269.412 77.5614 268.619 77.5614 267.486C77.5614 266.353 76.8392 265.56 75.848 265.56ZM82.4043 260.561H83.5371V273.362H82.4043V260.561ZM80.3652 265.942H82.7866V266.919H80.3652V265.942ZM79.6713 260.844H80.7758V272.739H79.6713V260.844ZM75.2816 260.929H76.4427V263.337H75.2816V260.929ZM92.1172 264.894H95.6857V265.857H92.1172V264.894ZM89.0303 261.666H89.9932V263.946C89.9932 266.82 88.478 269.567 86.4531 270.658L85.7025 269.723C87.5859 268.789 89.0303 266.325 89.0303 263.946V261.666ZM89.2568 261.666H90.2056V263.946C90.2056 266.282 91.6499 268.604 93.505 269.482L92.8111 270.431C90.7437 269.383 89.2568 266.749 89.2568 263.946V261.666ZM95.1051 260.547H96.2662V273.376H95.1051V260.547ZM104.6 261.765H105.521V264.201C105.521 266.877 104.388 269.468 102.519 270.601L101.768 269.723C103.538 268.689 104.6 266.395 104.6 264.201V261.765ZM104.813 261.765H105.733V264.13C105.733 266.24 106.725 268.406 108.424 269.355L107.716 270.275C105.847 269.199 104.813 266.707 104.813 264.13V261.765ZM111.667 260.561H112.799V273.362H111.667V260.561ZM109.642 265.702H112.091V266.679H109.642V265.702ZM108.849 260.83H109.967V272.725H108.849V260.83ZM114.951 270.813H126.548V271.791H114.951V270.813ZM120.133 268.066H121.309V271.224H120.133V268.066ZM116.353 261.51H125.118V265.39H117.556V267.953H116.395V264.441H123.957V262.459H116.353V261.51ZM116.395 267.457H125.415V268.42H116.395V267.457ZM127.963 267.047H139.575V268.01H127.963V267.047ZM133.259 267.656H134.448V270.601H133.259V267.656ZM129.436 272.102H138.286V273.079H129.436V272.102ZM129.436 269.341H130.611V272.371H129.436V269.341ZM133.755 260.873C136.459 260.873 138.243 261.864 138.243 263.45C138.243 265.036 136.459 266.027 133.755 266.027C131.036 266.027 129.266 265.036 129.266 263.45C129.266 261.864 131.036 260.873 133.755 260.873ZM133.755 261.836C131.8 261.836 130.512 262.459 130.512 263.45C130.512 264.455 131.8 265.064 133.755 265.064C135.709 265.064 136.997 264.455 136.997 263.45C136.997 262.459 135.709 261.836 133.755 261.836ZM144.17 270.743H155.768V271.72H144.17V270.743ZM145.176 261.836H154.677V262.799H145.176V261.836ZM145.204 267.245H154.663V268.208H145.204V267.245ZM147.172 262.728H148.348V267.344H147.172V262.728ZM151.534 262.728H152.695V267.344H151.534V262.728ZM157.197 270.813H168.794V271.791H157.197V270.813ZM162.38 268.066H163.555V271.224H162.38V268.066ZM158.599 261.51H167.364V265.39H159.802V267.953H158.641V264.441H166.203V262.459H158.599V261.51ZM158.641 267.457H167.661V268.42H158.641V267.457ZM179.541 260.561H180.73V267.188H179.541V260.561ZM172.376 267.811H180.73V270.898H173.565V272.824H172.418V270.02H179.555V268.746H172.376V267.811ZM172.418 272.286H181.198V273.221H172.418V272.286ZM170.79 261.425H177.658V262.36H170.79V261.425ZM170.563 266.764L170.436 265.786C172.716 265.786 175.774 265.73 178.267 265.418L178.337 266.282C175.788 266.664 172.815 266.749 170.563 266.764ZM172.05 261.85H173.183V266.211H172.05V261.85ZM175.25 261.85H176.397V266.211H175.25V261.85ZM191.854 261.892H193.001C193.001 265.588 191.755 268.987 187.167 271.267L186.53 270.36C190.58 268.364 191.854 265.503 191.854 262.02V261.892ZM187.224 261.892H192.548V262.841H187.224V261.892ZM191.67 265.064V265.971L186.771 266.452L186.587 265.404L191.67 265.064ZM195.069 260.547H196.258V273.362H195.069V260.547ZM195.932 265.744H198.297V266.721H195.932V265.744ZM200.902 266.693H209.695V267.656H200.902V266.693ZM199.443 270.658H211.041V271.635H199.443V270.658ZM200.902 261.737H209.568V262.714H202.077V267.118H200.902V261.737ZM212.455 266.509H224.067V267.401H212.455V266.509ZM213.829 268.434H222.609V271.167H215.033V272.668H213.872V270.36H221.462V269.27H213.829V268.434ZM213.872 272.357H223.019V273.207H213.872V272.357ZM213.928 260.929H222.566V263.592H215.118V264.979H213.956V262.799H221.419V261.765H213.928V260.929ZM213.956 264.696H222.807V265.546H213.956V264.696ZM93.6462 282.708H99.5228V288.642H93.6462V282.708ZM98.3758 283.657H94.7932V287.693H98.3758V283.657ZM101.873 281.547H103.049V290.935H101.873V281.547ZM102.681 285.455H104.946V286.432H102.681V285.455ZM95.0764 293.116H103.629V294.079H95.0764V293.116ZM95.0764 290.043H96.2517V293.527H95.0764V290.043ZM106.149 286.9H117.718V287.863H106.149V286.9ZM107.678 284.917H116.344V285.866H107.678V284.917ZM107.678 281.972H116.203V282.935H108.839V285.682H107.678V281.972ZM107.536 288.967H116.231V291.983H108.726V293.598H107.565V291.105H115.07V289.888H107.536V288.967ZM107.565 293.286H116.613V294.221H107.565V293.286ZM122.588 282.538C124.443 282.538 125.774 284.28 125.774 286.999C125.774 289.732 124.443 291.474 122.588 291.474C120.719 291.474 119.402 289.732 119.402 286.999C119.402 284.28 120.719 282.538 122.588 282.538ZM122.588 283.6C121.356 283.6 120.52 284.931 120.52 286.999C120.52 289.08 121.356 290.44 122.588 290.44C123.82 290.44 124.655 289.08 124.655 286.999C124.655 284.931 123.82 283.6 122.588 283.6ZM128.549 281.547H129.711V294.376H128.549V281.547ZM125.392 286.432H129.059V287.395H125.392V286.432ZM135.368 291.757H146.966V292.734H135.368V291.757ZM140.551 288.698H141.727V292.04H140.551V288.698ZM136.728 282.468H137.889V284.747H144.417V282.468H145.578V289.01H136.728V282.468ZM137.889 285.696V288.047H144.417V285.696H137.889ZM153.436 286.135H155.886V287.112H153.436V286.135ZM151.043 282.765H151.963V285.201C151.963 287.877 150.845 290.468 148.976 291.615L148.239 290.723C149.995 289.689 151.043 287.395 151.043 285.201V282.765ZM151.27 282.765H152.176V285.158C152.176 287.211 153.139 289.392 154.824 290.412L154.144 291.332C152.303 290.199 151.27 287.65 151.27 285.158V282.765ZM158.137 281.561H159.27V294.362H158.137V281.561ZM155.546 281.83H156.651V293.725H155.546V281.83ZM164.254 288.146H165.415V291.983H164.254V288.146ZM168.983 288.146H170.158V291.983H168.983V288.146ZM161.422 291.757H173.019V292.734H161.422V291.757ZM167.199 282.368C169.904 282.368 171.844 283.657 171.844 285.668C171.844 287.664 169.904 288.953 167.199 288.953C164.48 288.953 162.54 287.664 162.54 285.668C162.54 283.657 164.48 282.368 167.199 282.368ZM167.199 283.303C165.146 283.303 163.673 284.238 163.673 285.668C163.673 287.084 165.146 288.018 167.199 288.018C169.252 288.018 170.711 287.084 170.711 285.668C170.711 284.238 169.252 283.303 167.199 283.303ZM175.581 290.128L175.397 284.138L175.368 282.652H176.671L176.643 284.138L176.459 290.128H175.581ZM176.006 293.456C175.496 293.456 175.085 293.045 175.085 292.465C175.085 291.87 175.496 291.474 176.006 291.474C176.53 291.474 176.954 291.87 176.954 292.465C176.954 293.045 176.53 293.456 176.006 293.456Z" fill="#949494"/>
<circle cx="134.685" cy="183.983" r="54.7537" fill="#F2F2F2" stroke="#949494" stroke-width="0.94403" stroke-dasharray="1.89 1.89"/>
<path d="M134.307 191.063V183.882H127.604V183.107H134.307V175.959H135.063V183.107H141.765V183.882H135.063V191.063H134.307Z" fill="#949494"/>
<defs>
<filter id="filter0_d_708_7363" x="0.223881" y="0" width="269.552" height="427.44" filterUnits="userSpaceOnUse" color-interpolation-filters="sRGB">
<feFlood flood-opacity="0" result="BackgroundImageFix"/>
<feColorMatrix in="SourceAlpha" type="matrix" values="0 0 0 0 0 0 0 0 0 0 0 0 0 0 0 0 0 0 127 0" result="hardAlpha"/>
<feOffset dy="5.66418"/>
<feGaussianBlur stdDeviation="1.88806"/>
<feComposite in2="hardAlpha" operator="out"/>
<feColorMatrix type="matrix" values="0 0 0 0 0 0 0 0 0 0 0 0 0 0 0 0 0 0 0.25 0"/>
<feBlend mode="normal" in2="BackgroundImageFix" result="effect1_dropShadow_708_7363"/>
<feBlend mode="normal" in="SourceGraphic" in2="effect1_dropShadow_708_7363" result="shape"/>
</filter>
</defs>
</svg>
