<svg width="36" height="39" viewBox="0 0 36 39" fill="none" xmlns="http://www.w3.org/2000/svg">
<path d="M14.6073 10.4298C11.73 10.4298 6 11.8244 6 14.6017V16.6877H23.2146V14.6017C23.2146 11.8244 17.4846 10.4298 14.6073 10.4298ZM8.8773 14.3037C9.91018 13.6124 12.4063 12.8137 14.6073 12.8137C16.8083 12.8137 19.3045 13.6124 20.3373 14.3037H8.8773ZM14.6073 8.34383C16.9805 8.34383 18.911 6.47243 18.911 4.17191C18.911 1.8714 16.9805 0 14.6073 0C12.2342 0 10.3037 1.8714 10.3037 4.17191C10.3037 6.47243 12.2342 8.34383 14.6073 8.34383ZM14.6073 2.38395C15.6279 2.38395 16.4517 3.18257 16.4517 4.17191C16.4517 5.16125 15.6279 5.95988 14.6073 5.95988C13.5867 5.95988 12.7629 5.16125 12.7629 4.17191C12.7629 3.18257 13.5867 2.38395 14.6073 2.38395ZM23.2638 10.5013C24.6902 11.5026 25.6739 12.8376 25.6739 14.6017V16.6877H30.5923V14.6017C30.5923 12.1939 26.2887 10.8231 23.2638 10.5013ZM21.985 8.34383C24.3582 8.34383 26.2887 6.47243 26.2887 4.17191C26.2887 1.8714 24.3582 0 21.985 0C21.321 0 20.7062 0.154957 20.1406 0.417191C20.9153 1.47805 21.3702 2.7773 21.3702 4.17191C21.3702 5.56653 20.9153 6.86578 20.1406 7.92664C20.7062 8.18887 21.321 8.34383 21.985 8.34383Z" fill="#D3D3D3"/>
<path d="M1.31755 29.1339H6.67712V30.0926H1.31755V29.1339ZM0.541468 34.7217H8.18364V35.7078H0.541468V34.7217ZM6.03799 29.1339H7.24321V30.1383C7.24321 31.3252 7.24321 32.4757 6.9419 34.2104L5.72755 34.11C6.03799 32.4848 6.03799 31.2796 6.03799 30.1383V29.1339ZM8.93162 32.4483H16.5921V33.3978H8.93162V32.4483ZM12.1455 32.777H13.3508V34.11H12.1455V32.777ZM9.88119 33.763H11.0773V34.4296H14.4829V33.763H15.679V36.7213H9.88119V33.763ZM11.0773 35.3061V35.8083H14.4829V35.3061H11.0773ZM9.87206 28.4857H15.6608V30.6678H11.0864V31.6448H9.88119V29.8187H14.4647V29.3896H9.87206V28.4857ZM9.88119 31.1335H15.8251V32.0283H9.88119V31.1335ZM19.7739 28.9696H23.3895V29.9465H19.7739V28.9696ZM20.8147 30.9417H22.02V33.06H20.8147V30.9417ZM22.9147 28.9696H24.1108V29.4991C24.1108 30.0926 24.1108 30.9326 23.91 31.9826L22.7321 31.8548C22.9147 30.8139 22.9147 30.0835 22.9147 29.4991V28.9696ZM24.9326 28.3578H26.156V34.6852H24.9326V28.3578ZM25.6721 30.9326H27.1604V31.9278H25.6721V30.9326ZM20.5134 35.6987H26.4208V36.6665H20.5134V35.6987ZM20.5134 34.1191H21.7278V36H20.5134V34.1191ZM19.3904 33.553L19.2808 32.5943C20.7417 32.5943 22.7778 32.567 24.476 32.3296L24.5491 33.1878C22.8052 33.5165 20.8421 33.553 19.3904 33.553ZM33.624 28.3487H34.8384V36.8309H33.624V28.3487ZM28.2553 33.8726H29.004C30.5014 33.8726 31.6975 33.8178 33.0397 33.5896L33.1584 34.5665C31.7888 34.813 30.5471 34.8587 29.004 34.8587H28.2553V33.8726ZM28.2462 29.07H32.2362V32.3387H29.4879V34.2378H28.2553V31.38H30.9945V30.0378H28.2462V29.07Z" fill="#D3D3D3"/>
</svg>
