<svg width="300" height="65" viewBox="0 0 300 65" fill="none" xmlns="http://www.w3.org/2000/svg">
<path d="M6.348 5.076H9.084V5.892H6.348V5.076ZM8.52 2.1H9.516V10.044H8.52V2.1ZM2.592 11.88H9.816V12.696H2.592V11.88ZM2.592 9.348H3.588V12.3H2.592V9.348ZM3.36 3.444H4.176V4.32C4.176 6.288 2.952 7.992 1.14 8.664L0.624 7.872C2.244 7.296 3.36 5.856 3.36 4.32V3.444ZM3.552 3.444H4.356V4.308C4.356 5.712 5.412 7.08 6.984 7.632L6.48 8.412C4.716 7.776 3.552 6.144 3.552 4.308V3.444ZM0.936 2.976H6.732V3.78H0.936V2.976ZM16.2591 8.928C18.5631 8.928 20.0391 9.684 20.0391 10.932C20.0391 12.168 18.5631 12.912 16.2591 12.912C13.9431 12.912 12.4791 12.168 12.4791 10.932C12.4791 9.684 13.9431 8.928 16.2591 8.928ZM16.2591 9.708C14.5551 9.708 13.4631 10.176 13.4631 10.932C13.4631 11.676 14.5551 12.144 16.2591 12.144C17.9631 12.144 19.0431 11.676 19.0431 10.932C19.0431 10.176 17.9631 9.708 16.2591 9.708ZM12.5631 2.628H19.5471V3.444H12.5631V2.628ZM11.3991 7.14H21.1911V7.944H11.3991V7.14ZM15.4191 5.052H16.4031V7.368H15.4191V5.052ZM18.9711 2.628H19.9431V3.552C19.9431 4.428 19.9431 5.304 19.6551 6.432L18.6711 6.312C18.9711 5.196 18.9711 4.404 18.9711 3.552V2.628ZM23.4341 6.36L22.9181 5.976L23.6621 4.716L22.3661 4.176L22.5701 3.564L23.9381 3.912L24.0581 2.448H24.7181L24.8381 3.9L26.2061 3.564L26.3981 4.176L25.1021 4.716L25.8701 5.976L25.3421 6.36L24.3941 5.208L23.4341 6.36Z" fill="#949494"/>
<rect x="0.691741" y="22.6917" width="298.617" height="41.6165" rx="20.8083" stroke="#FFA300" stroke-width="1.38348"/>
</svg>
