<svg width="300" height="65" viewBox="0 0 300 65" fill="none" xmlns="http://www.w3.org/2000/svg">
<path d="M8.016 2.1H9.012V10.236H8.016V2.1ZM8.7 5.652H10.62V6.492H8.7V5.652ZM0.624 3.408H7.032V4.212H0.624V3.408ZM3.828 4.812C5.364 4.812 6.42 5.616 6.42 6.84C6.42 8.052 5.364 8.856 3.828 8.856C2.28 8.856 1.224 8.052 1.224 6.84C1.224 5.616 2.28 4.812 3.828 4.812ZM3.828 5.592C2.844 5.592 2.172 6.084 2.172 6.84C2.172 7.584 2.844 8.076 3.828 8.076C4.8 8.076 5.472 7.584 5.472 6.84C5.472 6.084 4.8 5.592 3.828 5.592ZM3.324 2.088H4.32V3.828H3.324V2.088ZM2.256 11.88H9.504V12.696H2.256V11.88ZM2.256 9.588H3.252V12.228H2.256V9.588ZM15.7911 7.188H16.7871V8.856H15.7911V7.188ZM11.3871 6.612H21.1911V7.416H11.3871V6.612ZM12.5751 8.484H19.9431V10.98H13.5831V12.252H12.5991V10.26H18.9591V9.24H12.5751V8.484ZM12.5991 12.048H20.2671V12.816H12.5991V12.048ZM15.7191 2.76H16.5951V3.096C16.5951 4.764 14.5551 5.856 12.2391 6.084L11.9151 5.316C13.9191 5.148 15.7191 4.26 15.7191 3.096V2.76ZM16.0071 2.76H16.8711V3.096C16.8711 4.26 18.6711 5.148 20.6751 5.316L20.3511 6.084C18.0471 5.856 16.0071 4.764 16.0071 3.096V2.76ZM12.2871 2.448H20.3151V3.252H12.2871V2.448ZM22.1981 10.704H32.0261V11.532H22.1981V10.704ZM26.5661 8.076H27.5501V10.98H26.5661V8.076ZM26.5421 2.808H27.4061V3.648C27.4061 5.964 25.1861 7.752 23.0021 8.208L22.5821 7.38C24.4901 7.032 26.5421 5.436 26.5421 3.648V2.808ZM26.7221 2.808H27.5861V3.648C27.5861 5.448 29.6501 7.032 31.5581 7.38L31.1261 8.208C28.9421 7.752 26.7221 5.964 26.7221 3.648V2.808ZM41.2292 2.088H42.1892V12.936H41.2292V2.088ZM39.4772 6.444H41.5532V7.26H39.4772V6.444ZM36.6692 3.48H37.6292C37.6292 6.276 36.6692 8.868 33.5732 10.608L32.9852 9.9C35.7092 8.376 36.6692 6.18 36.6692 3.672V3.48ZM33.4052 3.48H37.0052V4.308H33.4052V3.48ZM38.8172 2.376H39.7652V12.408H38.8172V2.376ZM45.0323 6.36L44.5163 5.976L45.2603 4.716L43.9643 4.176L44.1683 3.564L45.5363 3.912L45.6563 2.448H46.3163L46.4363 3.9L47.8043 3.564L47.9963 4.176L46.7003 4.716L47.4683 5.976L46.9403 6.36L45.9923 5.208L45.0323 6.36ZM56.313 14.364C55.197 12.564 54.537 10.644 54.537 8.28C54.537 5.928 55.197 3.984 56.313 2.184L56.985 2.508C55.953 4.212 55.449 6.24 55.449 8.28C55.449 10.32 55.953 12.348 56.985 14.052L56.313 14.364ZM60.9557 7.824H61.9637V10.176H60.9557V7.824ZM60.9557 4.008H61.7597V4.248C61.7597 6.144 60.5237 7.608 58.6997 8.184L58.2437 7.404C59.8517 6.924 60.9557 5.712 60.9557 4.248V4.008ZM61.1477 4.008H61.9517V4.248C61.9517 5.652 63.0917 6.828 64.6877 7.296L64.2317 8.064C62.4077 7.524 61.1477 6.084 61.1477 4.248V4.008ZM58.4957 3.504H64.4597V4.308H58.4957V3.504ZM60.9557 2.16H61.9637V3.852H60.9557V2.16ZM65.6957 2.076H66.6917V12.948H65.6957V2.076ZM58.0517 10.716L57.9077 9.876C59.8877 9.876 62.6237 9.864 64.9877 9.504L65.0717 10.236C62.6357 10.692 59.9837 10.704 58.0517 10.716ZM76.9027 2.088H77.8627V12.936H76.9027V2.088ZM75.0667 6.432H77.1547V7.26H75.0667V6.432ZM74.4427 2.328H75.3787V12.384H74.4427V2.328ZM69.0427 9.432H69.7507C71.3347 9.432 72.4147 9.372 73.6747 9.108L73.7707 9.936C72.4747 10.212 71.3827 10.26 69.7507 10.26H69.0427V9.432ZM69.0427 3.408H73.0747V4.224H70.0267V9.804H69.0427V3.408ZM81.8294 12V11.364C84.5894 8.952 85.8494 7.188 85.8494 5.688C85.8494 4.68 85.3334 3.936 84.2414 3.936C83.5214 3.936 82.8974 4.38 82.4054 4.956L81.7694 4.344C82.4894 3.564 83.2574 3.048 84.3734 3.048C85.9454 3.048 86.9294 4.068 86.9294 5.64C86.9294 7.404 85.5494 9.192 83.4734 11.148C83.9414 11.1 84.4694 11.064 84.9134 11.064H87.3494V12H81.8294ZM91.0537 12.168C89.3737 12.168 88.3057 10.644 88.3057 7.572C88.3057 4.524 89.3737 3.048 91.0537 3.048C92.7097 3.048 93.7777 4.524 93.7777 7.572C93.7777 10.644 92.7097 12.168 91.0537 12.168ZM91.0537 11.28C92.0497 11.28 92.7217 10.164 92.7217 7.572C92.7217 5.016 92.0497 3.924 91.0537 3.924C90.0457 3.924 89.3617 5.016 89.3617 7.572C89.3617 10.164 90.0457 11.28 91.0537 11.28ZM97.4099 3.636H98.2019V5.4C98.2019 7.656 96.8219 9.984 95.1299 10.848L94.5539 10.056C96.1019 9.3 97.4099 7.236 97.4099 5.4V3.636ZM97.5899 3.636H98.3819V5.4C98.3819 7.116 99.6059 9.048 101.178 9.792L100.614 10.584C98.8979 9.732 97.5899 7.548 97.5899 5.4V3.636ZM94.9379 3.192H100.782V4.032H94.9379V3.192ZM102.066 2.088H103.074V12.936H102.066V2.088ZM102.834 6.468H104.85V7.308H102.834V6.468ZM106.121 14.364L105.437 14.052C106.469 12.348 106.973 10.32 106.973 8.28C106.973 6.24 106.469 4.212 105.437 2.508L106.121 2.184C107.225 3.984 107.885 5.928 107.885 8.28C107.885 10.644 107.225 12.564 106.121 14.364Z" fill="#949494"/>
<rect x="0.691741" y="22.6917" width="298.617" height="41.6165" rx="20.8083" stroke="#FFA300" stroke-width="1.38348"/>
</svg>
