<svg width="300" height="65" viewBox="0 0 300 65" fill="none" xmlns="http://www.w3.org/2000/svg">
<path d="M8.472 2.076H9.468V12.948H8.472V2.076ZM3.744 2.916C5.352 2.916 6.504 4.392 6.504 6.696C6.504 9.012 5.352 10.488 3.744 10.488C2.148 10.488 0.996 9.012 0.996 6.696C0.996 4.392 2.148 2.916 3.744 2.916ZM3.744 3.816C2.688 3.816 1.944 4.944 1.944 6.696C1.944 8.46 2.688 9.612 3.744 9.612C4.812 9.612 5.544 8.46 5.544 6.696C5.544 4.944 4.812 3.816 3.744 3.816ZM11.3871 7.68H21.2271V8.496H11.3871V7.68ZM12.6351 2.352H19.9551V4.92H13.6431V6.36H12.6591V4.188H18.9831V3.132H12.6351V2.352ZM12.6591 5.976H20.1951V6.756H12.6591V5.976ZM12.7071 9.48H19.9671V12.792H12.7071V9.48ZM18.9951 10.272H13.6791V11.988H18.9951V10.272ZM23.4341 6.36L22.9181 5.976L23.6621 4.716L22.3661 4.176L22.5701 3.564L23.9381 3.912L24.0581 2.448H24.7181L24.8381 3.9L26.2061 3.564L26.3981 4.176L25.1021 4.716L25.8701 5.976L25.3421 6.36L24.3941 5.208L23.4341 6.36Z" fill="#949494"/>
<rect x="0.691741" y="22.6917" width="298.617" height="41.6165" rx="20.8083" stroke="#FFA300" stroke-width="1.38348"/>
</svg>
