<svg width="300" height="65" viewBox="0 0 300 65" fill="none" xmlns="http://www.w3.org/2000/svg">
<path d="M8.52 2.088H9.516V12.936H8.52V2.088ZM5.988 6.432H8.964V7.26H5.988V6.432ZM5.04 3.252H6.024C6.024 6.348 4.74 9.084 1.14 10.884L0.588 10.104C3.744 8.556 5.04 6.252 5.04 3.42V3.252ZM1.056 3.252H5.568V4.068H1.056V3.252ZM15.7431 3.156H16.6071V3.612C16.6071 5.556 14.5431 6.984 12.3591 7.356L11.9751 6.564C13.8831 6.288 15.7431 5.04 15.7431 3.612V3.156ZM15.9951 3.156H16.8471V3.612C16.8471 5.04 18.7191 6.288 20.6151 6.564L20.2431 7.356C18.0471 6.984 15.9951 5.556 15.9951 3.612V3.156ZM15.7791 8.796H16.7631V12.936H15.7791V8.796ZM11.3991 8.268H21.2031V9.084H11.3991V8.268ZM12.3111 2.76H20.2551V3.564H12.3111V2.76ZM27.5097 3.636H28.3137V5.4C28.3137 7.692 26.9337 9.996 25.2057 10.848L24.6297 10.056C26.2017 9.312 27.5097 7.272 27.5097 5.4V3.636ZM27.7017 3.636H28.5057V5.4C28.5057 7.236 29.8137 9.108 31.4097 9.792L30.8457 10.584C29.0937 9.768 27.7017 7.656 27.7017 5.4V3.636ZM24.9897 3.192H31.0497V4.032H24.9897V3.192ZM32.5137 2.088H33.5097V12.936H32.5137V2.088ZM40.3728 3.684H43.6848V4.5H40.3728V3.684ZM40.3728 6.108H43.6848V6.936H40.3728V6.108ZM37.1208 9.084H44.3568V12.936H43.3608V9.888H37.1208V9.084ZM43.3608 2.088H44.3568V8.484H43.3608V2.088ZM38.3928 2.688C39.9888 2.688 41.1888 3.768 41.1888 5.304C41.1888 6.84 39.9888 7.908 38.3928 7.908C36.7848 7.908 35.5968 6.84 35.5968 5.304C35.5968 3.768 36.7848 2.688 38.3928 2.688ZM38.3928 3.54C37.3368 3.54 36.5568 4.272 36.5568 5.304C36.5568 6.336 37.3368 7.056 38.3928 7.056C39.4488 7.056 40.2408 6.336 40.2408 5.304C40.2408 4.272 39.4488 3.54 38.3928 3.54ZM47.4758 6.36L46.9598 5.976L47.7038 4.716L46.4078 4.176L46.6118 3.564L47.9798 3.912L48.0998 2.448H48.7598L48.8798 3.9L50.2478 3.564L50.4398 4.176L49.1438 4.716L49.9118 5.976L49.3838 6.36L48.4358 5.208L47.4758 6.36Z" fill="#949494"/>
<rect x="0.691741" y="22.6917" width="298.617" height="41.6165" rx="20.8083" stroke="#FFA300" stroke-width="1.38348"/>
</svg>
