<svg width="300" height="65" viewBox="0 0 300 65" fill="none" xmlns="http://www.w3.org/2000/svg">
<path d="M2.868 2.76H3.66V4.212C3.66 5.832 2.724 7.536 1.128 8.244L0.588 7.464C2.016 6.84 2.868 5.436 2.868 4.212V2.76ZM3.024 2.76H3.816V4.212C3.816 5.412 4.632 6.636 6.024 7.176L5.484 7.932C3.924 7.308 3.024 5.808 3.024 4.212V2.76ZM8.784 2.1H9.732V8.784H8.784V2.1ZM7.056 4.992H9.108V5.808H7.056V4.992ZM6.456 2.304H7.404V8.436H6.456V2.304ZM6.168 9.024C8.4 9.024 9.792 9.744 9.792 10.98C9.792 12.204 8.4 12.912 6.168 12.912C3.924 12.912 2.556 12.204 2.556 10.98C2.556 9.744 3.924 9.024 6.168 9.024ZM6.168 9.804C4.536 9.804 3.528 10.236 3.528 10.98C3.528 11.712 4.536 12.144 6.168 12.144C7.8 12.144 8.796 11.712 8.796 10.98C8.796 10.236 7.8 9.804 6.168 9.804ZM14.4351 2.484C16.0551 2.484 17.2431 3.468 17.2431 4.896C17.2431 6.312 16.0551 7.296 14.4351 7.296C12.8271 7.296 11.6391 6.312 11.6391 4.896C11.6391 3.468 12.8271 2.484 14.4351 2.484ZM14.4351 3.3C13.3911 3.3 12.5991 3.96 12.5991 4.896C12.5991 5.832 13.3911 6.48 14.4351 6.48C15.4911 6.48 16.2711 5.832 16.2711 4.896C16.2711 3.96 15.4911 3.3 14.4351 3.3ZM19.2831 2.088H20.2911V7.644H19.2831V2.088ZM13.2711 8.172H20.2911V10.812H14.2671V12.444H13.2951V10.068H19.3071V8.976H13.2711V8.172ZM13.2951 12H20.6511V12.792H13.2951V12ZM23.4341 6.36L22.9181 5.976L23.6621 4.716L22.3661 4.176L22.5701 3.564L23.9381 3.912L24.0581 2.448H24.7181L24.8381 3.9L26.2061 3.564L26.3981 4.176L25.1021 4.716L25.8701 5.976L25.3421 6.36L24.3941 5.208L23.4341 6.36Z" fill="#949494"/>
<rect x="0.691741" y="22.6917" width="298.617" height="41.6165" rx="20.8083" stroke="#FFA300" stroke-width="1.38348"/>
</svg>
