<svg width="305" height="50" viewBox="0 0 305 50" fill="none" xmlns="http://www.w3.org/2000/svg">
<rect width="305" height="50" rx="25" fill="white"/>
<path d="M87.734 20.2784H93.8053C93.8053 24.3546 92.8437 27.7562 87.9206 30.268L86.9159 28.804C89.0832 27.7275 90.3606 26.4932 91.107 25.0435L87.2747 25.4167L87.0307 23.8092L91.6524 23.5365C91.7816 22.9911 91.882 22.4169 91.9251 21.7854H87.734V20.2784ZM99.1733 24.0532V25.6176H97.3218V32.2056H95.4272V19.0009H97.3218V24.0532H99.1733ZM100.938 20.2784H107.009C107.009 24.3546 106.047 27.7562 101.124 30.268L100.12 28.804C102.287 27.7275 103.564 26.4932 104.311 25.0435L100.478 25.4167L100.234 23.8092L104.856 23.5365C104.985 22.9911 105.086 22.4169 105.129 21.7854H100.938V20.2784ZM112.377 24.0532V25.6176H110.525V32.2056H108.631V19.0009H110.525V24.0532H112.377ZM116.294 23.3355C116.294 24.6847 117.543 25.4741 119.351 25.4741C121.174 25.4741 122.423 24.6847 122.423 23.3355C122.423 21.9864 121.174 21.1969 119.351 21.1969C117.543 21.1969 116.294 21.9864 116.294 23.3355ZM120.299 29.1628H125.351V30.6986H113.381V29.1628H118.404V26.9238C116.079 26.6367 114.428 25.3019 114.428 23.3355C114.428 21.1252 116.538 19.6899 119.351 19.6899C122.179 19.6899 124.289 21.1252 124.289 23.3355C124.289 25.3019 122.638 26.6511 120.299 26.9238V29.1628ZM127.905 29.7944V28.3016H137.062V32.2487H135.167V29.7944H127.905ZM133.488 26.0195H138.526V27.5266H126.57V26.0195H131.593V25.0722H128.062V19.3311H137.162V20.7664H129.943V21.484H136.846V22.8619H129.943V23.6369H137.263V25.0722H133.488V26.0195ZM145.758 19.6755C148.543 19.6755 150.696 21.1969 150.696 23.5078C150.696 25.8042 148.543 27.3256 145.758 27.3256C142.988 27.3256 140.835 25.8042 140.835 23.5078C140.835 21.1969 142.988 19.6755 145.758 19.6755ZM145.758 21.2256C143.964 21.2256 142.687 22.0725 142.687 23.5078C142.687 24.9144 143.964 25.7755 145.758 25.7755C147.567 25.7755 148.844 24.9144 148.844 23.5078C148.844 22.0725 147.567 21.2256 145.758 21.2256ZM139.788 29.1054H151.758V30.6555H139.788V29.1054ZM159.909 29.2346H164.962V30.7847H152.991V29.2346H158.015V27.2682H154.369V22.7901H161.747V21.3692H154.355V19.8621H163.612V24.2685H156.249V25.7468H163.914V27.2682H159.909V29.2346ZM176.307 22.5031V19.3024H178.073V31.6602H176.307V27.3256H174.47V25.8042H176.307V24.0101H174.714C174.126 26.1918 172.805 28.0289 170.337 29.4929L169.26 28.1725C171.872 26.5793 173.021 24.6704 173.265 22.0868H170.006V20.5798H175.145C175.145 21.2544 175.102 21.8859 175.03 22.5031H176.307ZM179.02 19.0009H180.814V32.2344H179.02V19.0009ZM193.946 22.9911L193.257 24.4694C191.032 24.1536 189.425 23.2351 188.592 21.9146C187.76 23.2207 186.152 24.1536 183.942 24.4694L183.239 22.9911C186.21 22.6322 187.631 21.1252 187.631 19.6325V19.2449H189.568V19.6325C189.568 21.1682 190.961 22.6322 193.946 22.9911ZM183.971 29.3494V27.8567H193.157V32.2487H191.262V29.3494H183.971ZM189.554 25.4167H194.606V26.9238H182.65V25.4167H187.659V23.7087H189.554V25.4167ZM199.672 27.9859C200.562 27.9859 201.207 27.3831 201.207 26.364C201.207 25.3736 200.562 24.7565 199.672 24.7565C198.782 24.7565 198.122 25.3736 198.122 26.3784C198.122 27.3831 198.782 27.9859 199.672 27.9859ZM199.672 23.2207C201.581 23.2207 203.002 24.5268 203.002 26.364C203.002 28.2299 201.581 29.536 199.672 29.536C197.748 29.536 196.313 28.2299 196.313 26.364C196.313 24.5268 197.748 23.2207 199.672 23.2207ZM200.605 19.2449V20.9673H203.475V22.4744H195.782V20.9673H198.71V19.2449H200.605ZM208.126 24.1824V25.7468H206.231V32.2344H204.336V19.0153H206.231V24.1824H208.126ZM209.789 20.3788H216.133C216.133 24.4264 214.77 27.7275 210.076 29.9953L209.086 28.5026C212.459 26.8807 213.923 24.8139 214.196 21.8859H209.789V20.3788ZM218.157 19.0009H220.066V32.22H218.157V19.0009Z" fill="black"/>
<path fill-rule="evenodd" clip-rule="evenodd" d="M32 32C37.5228 32 42 28.4183 42 24C42 19.5817 37.5228 16 32 16C26.4772 16 22 19.5817 22 24C22 26.6953 23.6662 29.0794 26.2195 30.5288L25.1406 34.4848C25.092 34.6632 25.2907 34.8064 25.4445 34.7039L29.7934 31.8046C30.5033 31.9325 31.2418 32 32 32Z" fill="#191919"/>
</svg>
