<svg width="321" height="65" viewBox="0 0 321 65" fill="none" xmlns="http://www.w3.org/2000/svg">
<g filter="url(#filter0_d_708_6665)">
<rect x="4" width="313" height="57" rx="28.5" fill="#FFA300"/>
<path d="M92.9768 22.1127H94.9568V30.1827H92.9768V22.1127ZM92.9768 29.6727H93.9518C95.6318 29.6727 97.0268 29.6127 98.6318 29.2827L98.8868 30.9477C97.2218 31.3077 95.7218 31.3677 93.9518 31.3677H92.9768V29.6727ZM102.517 20.7927H104.422V34.6827H102.517V20.7927ZM96.8468 25.1727H100.012V26.7777H96.8468V25.1727ZM99.5768 21.0327H101.437V34.0677H99.5768V21.0327ZM108.346 31.6045L108.331 32.9448C108.331 33.4673 108.202 33.9971 107.943 34.5342C107.684 35.0713 107.35 35.5156 106.94 35.8672L105.914 35.3032C106.046 35.0835 106.168 34.8613 106.281 34.6367C106.398 34.4121 106.49 34.168 106.559 33.9043C106.632 33.6455 106.669 33.355 106.669 33.0327V31.6045H108.346ZM123.041 20.7777H125.051V34.7127H123.041V20.7777ZM117.566 21.7527C119.666 21.7527 121.211 23.6727 121.211 26.7027C121.211 29.7627 119.666 31.6827 117.566 31.6827C115.466 31.6827 113.921 29.7627 113.921 26.7027C113.921 23.6727 115.466 21.7527 117.566 21.7527ZM117.566 23.5677C116.531 23.5677 115.826 24.6627 115.826 26.7027C115.826 28.7727 116.531 29.8827 117.566 29.8827C118.601 29.8827 119.291 28.7727 119.291 26.7027C119.291 24.6627 118.601 23.5677 117.566 23.5677ZM136.945 20.7927H138.94V28.2777H136.945V20.7927ZM129.37 28.9527H139.135V30.4227H129.37V28.9527ZM134.26 30.8277C136.795 30.8277 138.235 31.4877 138.235 32.7627C138.235 34.0377 136.795 34.6977 134.26 34.6977C131.725 34.6977 130.3 34.0377 130.3 32.7627C130.3 31.4877 131.725 30.8277 134.26 30.8277ZM134.26 32.1927C132.835 32.1927 132.22 32.3577 132.22 32.7627C132.22 33.1827 132.835 33.3477 134.26 33.3477C135.685 33.3477 136.3 33.1827 136.3 32.7627C136.3 32.3577 135.685 32.1927 134.26 32.1927ZM133.255 27.9327H135.25V30.0027H133.255V27.9327ZM127.84 26.1327H128.965C131.59 26.1327 133.18 26.0877 135.025 25.7727L135.19 27.2877C133.3 27.6027 131.635 27.6477 128.965 27.6477H127.84V26.1327ZM127.825 21.3627H134.095V25.1727H129.82V26.8527H127.84V23.7777H132.13V22.8627H127.825V21.3627ZM134.77 23.1777H137.365V24.7527H134.77V23.1777ZM151.179 20.7927H153.084V34.6827H151.179V20.7927ZM145.674 26.1177H148.644V27.6927H145.674V26.1177ZM148.254 21.0927H150.114V34.0677H148.254V21.0927ZM145.224 22.4277H147.144C147.144 26.3877 145.959 29.5377 142.059 31.8027L140.934 30.4077C144.099 28.5027 145.224 26.1927 145.224 22.8327V22.4277ZM141.714 22.4277H145.854V24.0177H141.714V22.4277ZM161.813 26.4177H163.808V28.5177H161.813V26.4177ZM162.788 21.3477C164.798 21.3477 166.253 22.5027 166.253 24.1827C166.253 25.8327 164.798 26.9877 162.788 26.9877C160.778 26.9877 159.323 25.8327 159.323 24.1827C159.323 22.5027 160.778 21.3477 162.788 21.3477ZM162.788 22.8477C161.843 22.8477 161.183 23.3277 161.183 24.1827C161.183 25.0227 161.843 25.5027 162.788 25.5027C163.748 25.5027 164.393 25.0227 164.393 24.1827C164.393 23.3277 163.748 22.8477 162.788 22.8477ZM167.678 20.8077H169.673V31.3977H167.678V20.8077ZM168.968 25.1577H171.413V26.7927H168.968V25.1577ZM160.403 32.8377H170.138V34.4427H160.403V32.8377ZM160.403 30.4827H162.413V33.5277H160.403V30.4827ZM158.828 29.5977L158.603 28.0077C160.958 28.0077 164.213 27.9927 166.943 27.6027L167.078 29.0277C164.273 29.5527 161.123 29.5977 158.828 29.5977ZM175.672 21.5127H177.337V22.7577C177.337 25.5477 176.092 27.9927 173.362 28.9077L172.327 27.3027C174.697 26.5377 175.672 24.6627 175.672 22.7577V21.5127ZM176.092 21.5127H177.697V22.6677C177.697 24.5127 178.597 26.2227 180.802 26.9277L179.767 28.4877C177.202 27.6027 176.092 25.3677 176.092 22.6677V21.5127ZM182.077 20.7927H184.072V28.9227H182.077V20.7927ZM179.362 29.2827C182.302 29.2827 184.117 30.2877 184.117 31.9827C184.117 33.6927 182.302 34.6827 179.362 34.6827C176.422 34.6827 174.607 33.6927 174.607 31.9827C174.607 30.2877 176.422 29.2827 179.362 29.2827ZM179.362 30.8277C177.562 30.8277 176.602 31.2027 176.602 31.9827C176.602 32.7627 177.562 33.1527 179.362 33.1527C181.177 33.1527 182.137 32.7627 182.137 31.9827C182.137 31.2027 181.177 30.8277 179.362 30.8277ZM179.542 23.3127H182.362V24.9327H179.542V23.3127ZM195.186 20.7777H197.181V28.2777H195.186V20.7777ZM196.386 23.7477H199.026V25.3677H196.386V23.7477ZM188.001 28.8327H197.181V32.3577H190.011V33.6177H188.031V31.0077H195.216V30.2727H188.001V28.8327ZM188.031 33.1227H197.586V34.5927H188.031V33.1227ZM186.246 21.8127H194.421V23.3127H186.246V21.8127ZM190.341 23.6427C192.396 23.6427 193.746 24.5277 193.746 25.9227C193.746 27.3177 192.396 28.1727 190.341 28.1727C188.271 28.1727 186.921 27.3177 186.921 25.9227C186.921 24.5277 188.271 23.6427 190.341 23.6427ZM190.341 25.0377C189.411 25.0377 188.841 25.3377 188.841 25.9227C188.841 26.4777 189.411 26.7777 190.341 26.7777C191.271 26.7777 191.841 26.4777 191.841 25.9227C191.841 25.3377 191.271 25.0377 190.341 25.0377ZM189.336 20.6877H191.331V22.8777H189.336V20.6877ZM210.11 20.7927H212.015V34.6827H210.11V20.7927ZM204.605 26.1177H207.575V27.6927H204.605V26.1177ZM207.185 21.0927H209.045V34.0677H207.185V21.0927ZM204.155 22.4277H206.075C206.075 26.3877 204.89 29.5377 200.99 31.8027L199.865 30.4077C203.03 28.5027 204.155 26.1927 204.155 22.8327V22.4277ZM200.645 22.4277H204.785V24.0177H200.645V22.4277ZM216.618 27.8427H218.598V31.7427H216.618V27.8427ZM221.658 27.8427H223.653V31.7427H221.658V27.8427ZM213.858 31.4577H226.428V33.0777H213.858V31.4577ZM220.128 21.4677C223.113 21.4677 225.318 22.9377 225.318 25.2027C225.318 27.4677 223.113 28.9227 220.128 28.9227C217.128 28.9227 214.938 27.4677 214.938 25.2027C214.938 22.9377 217.128 21.4677 220.128 21.4677ZM220.128 23.0277C218.193 23.0277 216.903 23.8227 216.903 25.2027C216.903 26.5677 218.193 27.3777 220.128 27.3777C222.063 27.3777 223.353 26.5677 223.353 25.2027C223.353 23.8227 222.063 23.0277 220.128 23.0277ZM230.118 22.6836L229.906 30.147H228.273L228.06 22.6836H230.118ZM228.002 32.4468C228.002 32.1587 228.099 31.917 228.295 31.7217C228.495 31.5215 228.763 31.4214 229.1 31.4214C229.437 31.4214 229.703 31.5215 229.899 31.7217C230.099 31.917 230.199 32.1587 230.199 32.4468C230.199 32.73 230.099 32.9692 229.899 33.1646C229.703 33.3599 229.437 33.4575 229.1 33.4575C228.763 33.4575 228.495 33.3599 228.295 33.1646C228.099 32.9692 228.002 32.73 228.002 32.4468Z" fill="white"/>
</g>
<defs>
<filter id="filter0_d_708_6665" x="0" y="0" width="321" height="65" filterUnits="userSpaceOnUse" color-interpolation-filters="sRGB">
<feFlood flood-opacity="0" result="BackgroundImageFix"/>
<feColorMatrix in="SourceAlpha" type="matrix" values="0 0 0 0 0 0 0 0 0 0 0 0 0 0 0 0 0 0 127 0" result="hardAlpha"/>
<feOffset dy="4"/>
<feGaussianBlur stdDeviation="2"/>
<feComposite in2="hardAlpha" operator="out"/>
<feColorMatrix type="matrix" values="0 0 0 0 0 0 0 0 0 0 0 0 0 0 0 0 0 0 0.25 0"/>
<feBlend mode="normal" in2="BackgroundImageFix" result="effect1_dropShadow_708_6665"/>
<feBlend mode="normal" in="SourceGraphic" in2="effect1_dropShadow_708_6665" result="shape"/>
</filter>
</defs>
</svg>
