<svg width="26" height="43" viewBox="0 0 26 43" fill="none" xmlns="http://www.w3.org/2000/svg">
<path d="M13 23C19.0751 23 24 18.0751 24 12C24 5.92487 19.0751 1 13 1C6.92487 1 2 5.92487 2 12C2 18.0751 6.92487 23 13 23Z" stroke="#D3D3D3" stroke-width="2" stroke-linecap="round" stroke-linejoin="round"/>
<path d="M8.76929 7.76953H17.2308M8.76929 12.0003H17.2308M8.76929 16.2311H17.2308" stroke="#D3D3D3" stroke-width="2" stroke-linecap="round" stroke-linejoin="round"/>
<path d="M1.16803 37.7996H1.85281C3.3502 37.7996 4.32716 37.763 5.42281 37.5622L5.54151 38.5391C4.40933 38.7491 3.39585 38.7948 1.85281 38.7948H1.16803V37.7996ZM1.16803 33.1065H4.99368V34.0743H2.38237V38.1739H1.16803V33.1065ZM6.65542 32.3578H7.86977V40.84H6.65542V32.3578ZM4.58281 35.2704H7.16672V36.2565H4.58281V35.2704ZM9.1747 38.8496H16.826V39.8357H9.1747V38.8496ZM12.3795 37.0417H13.5938V39.087H12.3795V37.0417ZM9.97818 32.8965H11.1834V34.193H14.7899V32.8965H15.9951V37.2974H9.97818V32.8965ZM11.1834 35.1426V36.3296H14.7899V35.1426H11.1834ZM23.3901 32.3578H24.6136V40.8126H23.3901V32.3578ZM20.8975 33.2343H22.1027C22.1027 35.8183 21.2262 37.9365 18.2223 39.3883L17.5923 38.4204C20.0209 37.2517 20.8975 35.7178 20.8975 33.4535V33.2343ZM18.0396 33.2343H21.4727V34.193H18.0396V33.2343Z" fill="#D3D3D3"/>
</svg>
