<svg width="41" height="41" viewBox="0 0 41 41" fill="none" xmlns="http://www.w3.org/2000/svg">
<path d="M29.0336 0C29.6112 0 30.0791 0.455983 30.0791 1.01751V17.4267C30.0772 17.6958 29.9665 17.9534 29.7709 18.1438C29.5752 18.3342 29.3104 18.4421 29.0336 18.4443H10.0455C9.76814 18.444 9.50221 18.3367 9.30616 18.1459C9.11012 17.9551 9 17.6964 9 17.4267V1.01751C9.00193 0.748404 9.11267 0.49084 9.3083 0.300454C9.50392 0.110069 9.76874 0.00214635 10.0455 0H29.0336ZM27.9712 2.04936H11.1079V16.3949H27.9712V2.04936ZM25.8633 12.2962V14.3455H13.2158V12.2962H25.8633ZM19.5396 4.09872V10.2468H13.2158V4.09872H19.5396ZM25.8633 8.19745V10.2468H21.6475V8.19745H25.8633ZM17.4317 6.14808H15.3237V8.19745H17.4317V6.14808ZM25.8633 4.09872V6.14808H21.6475V4.09872H25.8633Z" fill="#FFA300"/>
<path d="M1.15742 37.3652V30.6087H2.64569L3.79612 33.777C3.95134 34.197 4.07003 34.6352 4.21612 35.0735H4.25264C4.40786 34.6352 4.52655 34.197 4.66351 33.777L5.78656 30.6087H7.28395V37.3652H6.05134V34.5439C6.05134 33.9048 6.1609 32.9644 6.23395 32.3252H6.18829L5.63134 33.9139L4.59047 36.7626H3.81438L2.77351 33.9139L2.22569 32.3252H2.18916C2.26221 32.9644 2.36264 33.9048 2.36264 34.5439V37.3652H1.15742ZM10.0828 37.3652V34.9L8.04669 30.6087H9.48017L10.1558 32.2613C10.3567 32.7635 10.5393 33.2383 10.7402 33.7587H10.7767C10.9867 33.2383 11.1876 32.7635 11.3884 32.2613L12.055 30.6087H13.461L11.425 34.9V37.3652H10.0828ZM15.8499 36.2057H23.5012V37.2009H15.8499V36.2057ZM16.4343 30.4535H22.8712V31.4213H16.4343V30.4535ZM16.4708 33.9505H22.8438V34.9274H16.4708V33.9505ZM17.5847 31.3483H18.7991V34.0418H17.5847V31.3483ZM20.5156 31.3483H21.7208V34.0418H20.5156V31.3483ZM24.2492 36.2605H31.9005V37.2465H24.2492V36.2605ZM27.454 34.6626H28.6684V36.6622H27.454V34.6626ZM25.1075 30.2709H31.0423V33.0831H26.331V34.5074H25.1257V32.1335H29.837V31.2296H25.1075V30.2709ZM25.1257 34.0235H31.234V35.0005H25.1257V34.0235ZM38.4646 29.7231H39.6881V34.0509H38.4646V29.7231ZM33.9633 34.3887H39.6881V36.6713H35.1776V37.6939H33.9815V35.8039H38.4829V35.32H33.9633V34.3887ZM33.9815 37.1826H39.9163V38.1231H33.9815V37.1826ZM33.0046 30.2344H37.5607V31.1657H33.0046V30.2344ZM32.9042 33.9048L32.7855 32.9461C34.2646 32.9461 36.2368 32.9187 37.8711 32.7178L37.935 33.5852C36.2642 33.8591 34.365 33.8957 32.9042 33.9048ZM33.6711 30.6544H34.8307V33.4209H33.6711V30.6544ZM35.7163 30.6544H36.8942V33.4209H35.7163V30.6544Z" fill="#FFA300"/>
</svg>
