<svg width="321" height="65" viewBox="0 0 321 65" fill="none" xmlns="http://www.w3.org/2000/svg">
<g filter="url(#filter0_d_708_6395)">
<rect x="4" width="313" height="57" rx="28.5" fill="white"/>
<path d="M136.997 29.3127H146.237V34.5327H136.997V29.3127ZM144.287 30.8727H138.962V32.9577H144.287V30.8727ZM135.377 21.5277H137.357V27.2877H135.377V21.5277ZM135.377 26.5677H136.532C138.497 26.5677 140.522 26.4477 142.637 26.0277L142.847 27.6777C140.672 28.1127 138.572 28.2327 136.532 28.2327H135.377V26.5677ZM144.242 20.7927H146.237V28.7127H144.242V20.7927ZM140.882 23.1027H144.677V24.7077H140.882V23.1027ZM152.221 21.7527C154.291 21.7527 155.806 23.6727 155.806 26.7027C155.806 29.7627 154.291 31.6827 152.221 31.6827C150.136 31.6827 148.636 29.7627 148.636 26.7027C148.636 23.6727 150.136 21.7527 152.221 21.7527ZM152.221 23.5677C151.216 23.5677 150.541 24.6627 150.541 26.7027C150.541 28.7727 151.216 29.8827 152.221 29.8827C153.241 29.8827 153.901 28.7727 153.901 26.7027C153.901 24.6627 153.241 23.5677 152.221 23.5677ZM158.086 20.7777H160.066V34.7127H158.086V20.7777ZM155.221 25.7877H158.926V27.3927H155.221V25.7877ZM171.09 20.7777H173.1V34.6677H171.09V20.7777ZM172.575 26.0877H175.02V27.7227H172.575V26.0877ZM167.445 22.2177H169.395C169.395 26.3877 167.805 29.9577 163.185 32.2827L162.075 30.7677C165.72 28.8777 167.445 26.3277 167.445 22.5627V22.2177ZM162.84 22.2177H168.465V23.8227H162.84V22.2177ZM185.579 20.7927H187.589V34.6827H185.579V20.7927ZM181.484 22.2327H183.464C183.464 26.4777 182.024 29.9577 177.089 32.3427L176.054 30.7527C180.044 28.8327 181.484 26.3127 181.484 22.5927V22.2327ZM176.789 22.2327H182.429V23.8077H176.789V22.2327Z" fill="#949494"/>
</g>
<defs>
<filter id="filter0_d_708_6395" x="0" y="0" width="321" height="65" filterUnits="userSpaceOnUse" color-interpolation-filters="sRGB">
<feFlood flood-opacity="0" result="BackgroundImageFix"/>
<feColorMatrix in="SourceAlpha" type="matrix" values="0 0 0 0 0 0 0 0 0 0 0 0 0 0 0 0 0 0 127 0" result="hardAlpha"/>
<feOffset dy="4"/>
<feGaussianBlur stdDeviation="2"/>
<feComposite in2="hardAlpha" operator="out"/>
<feColorMatrix type="matrix" values="0 0 0 0 0 0 0 0 0 0 0 0 0 0 0 0 0 0 0.25 0"/>
<feBlend mode="normal" in2="BackgroundImageFix" result="effect1_dropShadow_708_6395"/>
<feBlend mode="normal" in="SourceGraphic" in2="effect1_dropShadow_708_6395" result="shape"/>
</filter>
</defs>
</svg>
