<svg width="45" height="41" viewBox="0 0 45 41" fill="none" xmlns="http://www.w3.org/2000/svg">
<path d="M31.151 7.49479L16.8055 0.322025C16.2394 0.0402475 15.6001 -0.0600674 14.9748 0.0347578C14.3496 0.129583 13.7688 0.414933 13.3117 0.851904C12.8545 1.28887 12.5433 1.8562 12.4204 2.47653C12.2974 3.09686 12.3688 3.74001 12.6248 4.31828L15.084 9.82082C15.1398 9.95385 15.1686 10.0967 15.1686 10.2409C15.1686 10.3852 15.1398 10.528 15.084 10.6611L12.6248 16.1636C12.4165 16.6316 12.3284 17.1442 12.3686 17.6549C12.4088 18.1656 12.576 18.6581 12.8549 19.0877C13.1339 19.5174 13.5158 19.8705 13.9659 20.115C14.4161 20.3595 14.9202 20.4876 15.4324 20.4877C15.9122 20.483 16.3849 20.3709 16.8157 20.1598L31.1613 12.9871C31.6701 12.7311 32.0979 12.3388 32.3967 11.8539C32.6956 11.369 32.8539 10.8105 32.8539 10.2409C32.8539 9.67132 32.6956 9.11291 32.3967 8.62801C32.0979 8.1431 31.6701 7.75077 31.1613 7.49479H31.151ZM30.2391 11.1529L15.8935 18.3257C15.7052 18.4161 15.4936 18.4468 15.2873 18.4136C15.081 18.3805 14.8898 18.285 14.7392 18.14C14.5887 17.9951 14.4861 17.8076 14.4452 17.6027C14.4042 17.3978 14.4269 17.1852 14.5102 16.9936L16.9592 11.491C16.9909 11.4176 17.0183 11.3423 17.0412 11.2656H24.1012C24.373 11.2656 24.6336 11.1577 24.8258 10.9655C25.0179 10.7733 25.1259 10.5127 25.1259 10.2409C25.1259 9.96917 25.0179 9.70854 24.8258 9.51638C24.6336 9.32421 24.373 9.21625 24.1012 9.21625H17.0412C17.0183 9.13958 16.9909 9.0643 16.9592 8.99082L14.5102 3.48829C14.4269 3.29664 14.4042 3.0841 14.4452 2.87919C14.4861 2.67427 14.5887 2.48677 14.7392 2.34182C14.8898 2.19688 15.081 2.10141 15.2873 2.06824C15.4936 2.03506 15.7052 2.06575 15.8935 2.1562L30.2391 9.32897C30.4069 9.41496 30.5478 9.5456 30.6461 9.70651C30.7445 9.86742 30.7965 10.0523 30.7965 10.2409C30.7965 10.4295 30.7445 10.6145 30.6461 10.7754C30.5478 10.9363 30.4069 11.0669 30.2391 11.1529Z" fill="#D3D3D3"/>
<path d="M0.841826 36.7848H8.49313V37.78H0.841826V36.7848ZM1.42617 31.0326H7.86313V32.0004H1.42617V31.0326ZM1.4627 34.5296H7.83574V35.5065H1.4627V34.5296ZM2.57661 31.9274H3.79096V34.6209H2.57661V31.9274ZM5.50748 31.9274H6.71269V34.6209H5.50748V31.9274ZM9.24111 36.8396H16.8924V37.8256H9.24111V36.8396ZM12.4459 35.2417H13.6602V37.2413H12.4459V35.2417ZM10.0994 30.85H16.0342V33.6622H11.3229V35.0865H10.1176V32.7126H14.8289V31.8087H10.0994V30.85ZM10.1176 34.6026H16.2259V35.5796H10.1176V34.6026ZM23.4565 30.3022H24.68V34.63H23.4565V30.3022ZM18.9552 34.9678H24.68V37.2504H20.1695V38.273H18.9734V36.383H23.4747V35.8991H18.9552V34.9678ZM18.9734 37.7617H24.9082V38.7022H18.9734V37.7617ZM17.9965 30.8135H22.5526V31.7448H17.9965V30.8135ZM17.8961 34.4839L17.7774 33.5252C19.2565 33.5252 21.2287 33.4978 22.863 33.2969L22.9269 34.1643C21.2561 34.4382 19.3569 34.4748 17.8961 34.4839ZM18.663 31.2335H19.8226V34H18.663V31.2335ZM20.7082 31.2335H21.8861V34H20.7082V31.2335ZM30.1353 31.6352H31.1031V32.5848C31.1031 34.5387 30.3087 36.4469 28.72 37.1682L28.0353 36.2096C29.4505 35.5796 30.1353 34.0182 30.1353 32.5848V31.6352ZM30.4092 31.6352H31.3679V32.5848C31.3679 33.9543 32.0435 35.4152 33.4587 35.9996L32.8013 36.9582C31.1944 36.2643 30.4092 34.4656 30.4092 32.5848V31.6352ZM28.3731 31.1148H33.1118V32.11H28.3731V31.1148ZM33.897 30.3022H35.1205V38.7569H33.897V30.3022ZM41.9311 30.3022H43.1545V34.8856H41.9311V30.3022ZM42.8167 32.1191H44.2776V33.1143H42.8167V32.1191ZM39.5024 30.7496H40.8354C40.8354 33.0048 39.4567 34.4109 36.9002 34.9861L36.4528 34.0091C38.5802 33.5617 39.5024 32.5665 39.5024 31.4161V30.7496ZM36.8911 30.7496H40.315V31.7082H36.8911V30.7496ZM37.6398 35.2143H38.845V36.0178H41.9493V35.2143H43.1545V38.6656H37.6398V35.2143ZM38.845 36.9582V37.6978H41.9493V36.9582H38.845Z" fill="#D3D3D3"/>
</svg>
